<svg width="13" height="13" viewBox="0 0 13 13" fill="none" xmlns="http://www.w3.org/2000/svg">
<path d="M11.0867 0.656622L6.31371 5.42959L1.54074 0.656622C1.29665 0.412538 0.900938 0.412538 0.656854 0.656622C0.41277 0.900707 0.41277 1.29642 0.656854 1.54051L5.42982 6.31348L0.656854 11.0864C0.41277 11.3305 0.41277 11.7262 0.656854 11.9703C0.900938 12.2144 1.29665 12.2144 1.54074 11.9703L6.31371 7.19736L11.0867 11.9703C11.3308 12.2144 11.7265 12.2144 11.9706 11.9703C12.2146 11.7262 12.2146 11.3305 11.9706 11.0864L7.19759 6.31348L11.9706 1.54051C12.2146 1.29642 12.2146 0.900707 11.9706 0.656622C11.7265 0.412538 11.3308 0.412538 11.0867 0.656622Z" fill="white"/>
</svg>
