<svg xmlns="http://www.w3.org/2000/svg" xmlns:xlink="http://www.w3.org/1999/xlink">
  <defs>
    <symbol width="13" height="13" viewBox="0 0 13 13" fill="none" xmlns="http://www.w3.org/2000/svg" id="filtersIcon">
        <path d="M12.3652 5.88679L11.1243 5.88679C10.8646 5.1798 10.2009 4.6748 9.40733 4.6748C8.61377 4.6748 7.95006 5.1798 7.69035 5.88679L0.620441 5.88679C0.288588 5.88679 0.01445 6.16093 0.01445 6.50721C0.01445 6.8535 0.288589 7.12764 0.63487 7.12764L7.70478 7.12764C7.96449 7.83463 8.6282 8.33963 9.42176 8.33963C10.2153 8.33963 10.8646 7.8202 11.1243 7.11321L12.3796 7.11321C12.7259 7.11321 13 6.83907 13 6.49279C13 6.1465 12.7114 5.88679 12.3652 5.88679Z" fill="white"/>
        <path d="M12.3651 10.5616L5.1798 10.5616C4.92009 9.8546 4.25638 9.34961 3.46282 9.34961C2.66925 9.34961 2.00555 9.8546 1.74584 10.5616L0.620419 10.5616C0.274137 10.5616 -2.90659e-06 10.8357 -2.91676e-06 11.1676C-2.92738e-06 11.5139 0.274136 11.788 0.620418 11.788L1.76026 11.788C2.00555 12.495 2.66925 13 3.46282 13C4.25638 13 4.92009 12.4806 5.19423 11.7736L12.3796 11.7736C12.7114 11.788 13 11.5139 13 11.1532C13 10.8357 12.7114 10.5616 12.3651 10.5616Z" fill="white"/>
        <path d="M0.620388 2.4384L3.9245 2.4384C4.18422 3.1454 4.84793 3.65039 5.64149 3.65039C6.43505 3.65039 7.08433 3.1454 7.35848 2.4384L12.3651 2.4384C12.7114 2.4384 13 2.16426 13 1.81798C13 1.4717 12.7114 1.19756 12.3651 1.19756L7.34405 1.19756C7.08433 0.504995 6.43505 -3.42642e-07 5.64149 -3.84061e-07C4.84793 -4.25479e-07 4.18422 0.504995 3.9245 1.21199L0.634817 1.21199C0.288534 1.21199 0.0143938 1.48613 0.0143937 1.83241C0.0143937 2.16426 0.274105 2.4384 0.620388 2.4384Z" fill="white"/>
    </symbol>

    <symbol width="14" height="14" viewBox="0 0 14 14" fill="none" xmlns="http://www.w3.org/2000/svg" id="searchIcon">
        <path fill-rule="evenodd" clip-rule="evenodd" d="M9.82054 8.50004H9.20368L8.98925 8.29454C9.74674 7.44179 10.2074 6.33629 10.2074 5.12504C10.2074 2.43254 7.94665 0.250036 5.15755 0.250036C2.36846 0.250036 0.107666 2.43254 0.107666 5.12504C0.107666 7.81754 2.36846 10 5.15755 10C6.41226 10 7.55664 9.55604 8.43998 8.82554L8.65441 9.03104V9.62504L12.5374 13.3683L13.6957 12.25L9.82054 8.50004ZM5.15755 8.50004C3.22617 8.50004 1.66148 6.98954 1.66148 5.12504C1.66148 3.26129 3.22617 1.75004 5.15755 1.75004C7.08816 1.75004 8.65363 3.26129 8.65363 5.12504C8.65363 6.98954 7.08816 8.50004 5.15755 8.50004Z" fill="#828282"/>
    </symbol>
    <symbol width="24" height="21" viewBox="0 0 24 21" fill="none" xmlns="http://www.w3.org/2000/svg" id="notificationIcon">
        <path fill-rule="evenodd" clip-rule="evenodd" d="M18.3 8.75C18.3 5.19823 16.2855 2.73308 13.6789 1.993C13.5845 1.75557 13.4353 1.53484 13.2326 1.34963C12.5398 0.716791 11.4603 0.716791 10.7675 1.34963C10.5652 1.53443 10.4162 1.75459 10.3218 1.99143C7.71183 2.72826 5.7 5.18804 5.7 8.75C5.7 11.0547 5.22208 12.3461 4.33736 13.2819C4.18944 13.4384 3.78867 13.7968 3.51719 14.0396L3.51716 14.0397L3.51694 14.0399C3.38862 14.1546 3.28923 14.2435 3.25917 14.273L3 14.5285V17.5123H8.47918C8.66445 18.4416 9.18308 19.0633 10.121 19.6198C11.2747 20.3043 12.7253 20.3043 13.879 19.6198C14.7067 19.1287 15.2617 18.374 15.4869 17.5123H21V14.5285L20.7408 14.273C20.7135 14.2461 20.6181 14.1604 20.4933 14.0485C20.2227 13.8058 19.814 13.4393 19.6638 13.2798C18.7785 12.3396 18.3 11.0466 18.3 8.75ZM13.563 17.5123H10.3608C10.4879 17.7423 10.7046 17.9159 11.0586 18.126C11.6366 18.4689 12.3634 18.4689 12.9414 18.126C13.2091 17.9672 13.4182 17.757 13.563 17.5123ZM18.3362 14.4615C18.5255 14.6626 18.9315 15.0303 19.2 15.2704V15.7623H4.8V15.2708C5.06646 15.0335 5.47359 14.6661 5.66264 14.4661C6.8648 13.1945 7.5 11.4781 7.5 8.75C7.5 5.44241 9.59949 3.51083 12 3.51083C14.3937 3.51083 16.5 5.45238 16.5 8.75C16.5 11.4693 17.1354 13.1863 18.3362 14.4615Z" fill="white"/>
        <circle cx="18" cy="4" r="3" fill="#EA212D"/>
    </symbol>
    <symbol width="8" height="5" viewBox="0 0 8 5" fill="none" xmlns="http://www.w3.org/2000/svg" id="arrowDownIcon">
        <path fill-rule="evenodd" clip-rule="evenodd" d="M0.0446916 0.293392C0.12576 0.114736 0.30382 0 0.500008 0H7.50001C7.6962 0 7.87426 0.114736 7.95532 0.293392C8.03639 0.472048 8.00549 0.681605 7.8763 0.829252L4.3763 4.82925C4.28135 4.93776 4.14419 5 4.00001 5C3.85583 5 3.71866 4.93776 3.62372 4.82925L0.12372 0.829252C-0.0054713 0.681605 -0.0363767 0.472048 0.0446916 0.293392Z" fill="#C4C4C4"/>
    </symbol>
    <symbol width="19" height="22" viewBox="0 0 19 22" fill="none" xmlns="http://www.w3.org/2000/svg" id="privacyIcon">
      <path fill-rule="evenodd" clip-rule="evenodd" d="M9 22C3 19.3271 0 16.6604 0 14V4C0 3.23241 0.294599 3.05401 1.10993 2.56029L1.10993 2.56029C1.35679 2.4108 1.65139 2.23241 2 2C2.16179 1.89214 5.56321 0 9 0C11.9952 0 14.5 1 16 2C16.3486 2.23241 16.6432 2.4108 16.8901 2.56029C17.7054 3.05401 18 3.23241 18 4C18.0197 4.21723 18.01 8.83711 18.0038 11.7947C18.0017 12.8033 18 13.6186 18 14C18 16.6667 15 19.3333 9 22ZM16 14C16 13.7697 16.0006 13.3838 16.0018 12.7547L16.0059 10.8014C16.0072 10.1695 16.0082 9.62725 16.009 9.10978C16.0127 6.87764 16.0117 4.96182 16.0096 4.36928L15.8722 4.28403C15.5488 4.08342 15.1274 3.82194 14.8906 3.6641C13.4143 2.67992 11.2602 2 9 2C6.83809 2 4.02864 3.05128 3.1094 3.6641C2.87264 3.82194 2.45117 4.08341 2.1278 4.28402L2.12779 4.28403L2 4.36333V14C2 15.5085 4.22911 17.5687 9.00093 19.802C13.7722 17.5737 16 15.5142 16 14ZM12.2929 7.29289L8 11.5858L5.70711 9.29289L4.29289 10.7071L8 14.4142L13.7071 8.70711L12.2929 7.29289Z" fill="white"/>
    </symbol>
    <symbol width="27" height="18" viewBox="0 0 27 18" fill="none" xmlns="http://www.w3.org/2000/svg" id="logoutIcon">
      <path d="M18.3062 3.91569L21.7955 7.62582H8.77124V10.1493H21.7955L18.3062 13.8594L20.1458 15.5906L26.4482 8.88764L20.1458 2.18469L18.3062 3.91569Z" fill="white"/>
      <path d="M15.6688 12.4752H13.4688V15.5752H2.2V2.2H13.4688V5.3H15.6688V0H0V17.7752H15.6688V12.4752Z" fill="white"/>
    </symbol>
    <symbol width="28.13" height="32" viewBox="0 0 28.13 32" fill="none" xmlns="http://www.w3.org/2000/svg" id="antennaIcon">
      <g clip-path="url(#clip0_1_13451)">
        <path d="M23.3751 15.0625C23.8933 15.0625 24.3126 14.6432 24.3126 14.125C24.3126 8.43871 19.6864 3.75 14 3.75C8.31371 3.75 3.6875 8.43871 3.6875 14.125C3.6875 14.6432 4.10681 15.0625 4.625 15.0625C5.14319 15.0625 5.56251 14.6432 5.56251 14.125C5.56251 9.47233 9.34733 5.62501 14 5.62501C18.6527 5.62501 22.4376 9.47233 22.4376 14.125C22.4376 14.6432 22.8569 15.0625 23.3751 15.0625Z" fill="white"/>
        <path d="M14 7.5C10.3818 7.5 7.4375 10.5068 7.4375 14.125C7.4375 14.6432 7.85681 15.0625 8.375 15.0625C8.89319 15.0625 9.3125 14.6432 9.3125 14.125C9.3125 11.5404 11.4154 9.375 14 9.375C16.5846 9.375 18.6875 11.5404 18.6875 14.125C18.6875 14.6432 19.1068 15.0625 19.625 15.0625C20.1432 15.0625 20.5625 14.6432 20.5625 14.125C20.5625 10.5068 17.6182 7.5 14 7.5Z" fill="white"/>
        <path d="M27.1251 15.0626C27.6433 15.0626 28.0626 14.6432 28.0626 14.1251C28.0626 6.37053 21.7546 0 14.0001 0C6.24552 0 -0.0625 6.37053 -0.0625 14.1251C-0.0625 14.6432 0.356814 15.0626 0.875004 15.0626C1.39319 15.0626 1.81251 14.6432 1.81251 14.1251C1.81251 7.40503 7.28003 1.87501 14.0001 1.87501C20.7201 1.87501 26.1876 7.40503 26.1876 14.1251C26.1876 14.6432 26.6069 15.0626 27.1251 15.0626Z" fill="white"/>
        <path d="M8.04542 31.9406C8.53067 32.1182 9.06992 31.8774 9.25298 31.3922L9.72811 30.0626H18.2718L18.747 31.3921C18.9269 31.8721 19.463 32.1223 19.9546 31.9405C20.4389 31.7583 20.6843 31.2181 20.503 30.733L15.2403 16.6365C16.1677 16.1762 16.8125 15.2286 16.8125 14.125C16.8125 12.5741 15.5508 11.25 13.9999 11.25C12.4491 11.25 11.1874 12.5741 11.1874 14.125C11.1874 15.2287 11.8322 16.1763 12.7596 16.6365L7.49691 30.733C7.31573 31.2182 7.5611 31.7584 8.04542 31.9406ZM10.4312 28.1876L11.1342 26.3126H16.8659L17.5689 28.1876H10.4312ZM12.5403 22.5625H15.4597L16.1627 24.4376H11.8372L12.5403 22.5625ZM13.2434 20.6875L14 18.6697L14.7566 20.6875H13.2434Z" fill="white"/>
      </g>
      <defs>
        <clipPath id="clip0_1_13451">
          <rect width="28.13" height="32" fill="white"/>
        </clipPath>
      </defs>
    </symbol>
    <symbol width="32" height="32" viewBox="0 0 32 32" fill="none" xmlns="http://www.w3.org/2000/svg" id="routerIcon">
      <path d="M29.1875 17.8126V16.625C29.1875 15.4028 28.4037 14.3608 27.3125 13.9738V2.875C27.3125 2.35725 26.8927 1.9375 26.375 1.9375C25.8573 1.9375 25.4375 2.35725 25.4375 2.875V13.9738C24.3463 14.3608 23.5625 15.4028 23.5625 16.625V17.8126H8.4375V16.625C8.4375 15.4028 7.65369 14.3608 6.5625 13.9738V2.875C6.5625 2.35725 6.14275 1.9375 5.625 1.9375C5.10725 1.9375 4.6875 2.35725 4.6875 2.875V13.9738C3.59631 14.3608 2.8125 15.4028 2.8125 16.625V17.8126C1.26169 17.8126 0 19.0742 0 20.625V26.2501C0 27.5749 0.921062 28.6879 2.15625 28.9844V29.125C2.15625 29.6427 2.576 30.0625 3.09375 30.0625C3.6115 30.0625 4.03125 29.6427 4.03125 29.125V29.0625H27.9688V29.125C27.9688 29.6427 28.3885 30.0625 28.9062 30.0625C29.424 30.0625 29.8438 29.6427 29.8438 29.125V28.9844C31.0789 28.6879 32 27.5748 32 26.2501V20.625C32 19.0742 30.7383 17.8126 29.1875 17.8126ZM25.4375 16.625C25.4375 16.1081 25.8581 15.6875 26.375 15.6875C26.8919 15.6875 27.3125 16.1081 27.3125 16.625V17.8125H25.4375V16.625ZM4.6875 16.625C4.6875 16.1081 5.10806 15.6875 5.625 15.6875C6.14194 15.6875 6.5625 16.1081 6.5625 16.625V17.8125H4.6875V16.625ZM30.125 26.2501C30.125 26.767 29.7044 27.1875 29.1875 27.1875H2.8125C2.29556 27.1875 1.875 26.7669 1.875 26.2501V20.625C1.875 20.1081 2.29556 19.6876 2.8125 19.6876H29.1875C29.7044 19.6876 30.125 20.1081 30.125 20.625V26.2501Z" fill="white"/>
      <path d="M4.6875 22.5C4.17112 22.5 3.75 22.9212 3.75 23.4375C3.75 23.9539 4.17112 24.375 4.6875 24.375C5.20388 24.375 5.625 23.9539 5.625 23.4375C5.62506 22.9212 5.20388 22.5 4.6875 22.5Z" fill="white"/>
      <path d="M8.43751 22.5C7.92113 22.5 7.5 22.9212 7.5 23.4375C7.5 23.9539 7.92113 24.375 8.43751 24.375C8.95388 24.375 9.37501 23.9539 9.37501 23.4375C9.37501 22.9212 8.95388 22.5 8.43751 22.5Z" fill="white"/>
      <path d="M12.1875 22.5C11.6711 22.5 11.25 22.9212 11.25 23.4375C11.25 23.9539 11.6711 24.375 12.1875 24.375C12.7039 24.375 13.125 23.9539 13.125 23.4375C13.125 22.9212 12.7039 22.5 12.1875 22.5Z" fill="white"/>
      <path d="M27.3125 22.5H17.4375C16.9197 22.5 16.5 22.9197 16.5 23.4375C16.5 23.9553 16.9197 24.375 17.4375 24.375H27.3125C27.8302 24.375 28.25 23.9553 28.25 23.4375C28.25 22.9197 27.8302 22.5 27.3125 22.5Z" fill="white"/>
    </symbol>
    <symbol width="13" height="13" viewBox="0 0 13 13" fill="none" xmlns="http://www.w3.org/2000/svg" id="xIcon">
      <path d="M11.0867 0.656622L6.31371 5.42959L1.54074 0.656622C1.29665 0.412538 0.900938 0.412538 0.656854 0.656622C0.41277 0.900707 0.41277 1.29642 0.656854 1.54051L5.42982 6.31348L0.656854 11.0864C0.41277 11.3305 0.41277 11.7262 0.656854 11.9703C0.900938 12.2144 1.29665 12.2144 1.54074 11.9703L6.31371 7.19736L11.0867 11.9703C11.3308 12.2144 11.7265 12.2144 11.9706 11.9703C12.2146 11.7262 12.2146 11.3305 11.9706 11.0864L7.19759 6.31348L11.9706 1.54051C12.2146 1.29642 12.2146 0.900707 11.9706 0.656622C11.7265 0.412538 11.3308 0.412538 11.0867 0.656622Z" fill="white"/>
    <symbol width="24" height="24" viewBox="0 0 24 24" fill="none" xmlns="http://www.w3.org/2000/svg" id="centerIcon">
      <path fill-rule="evenodd" clip-rule="evenodd" d="M1 13H3.05493C3.51608 17.1716 6.82838 20.4839 11 20.9451V23H13V20.9451C17.1716 20.4839 20.4839 17.1716 20.9451 13H23V11H20.9451C20.4839 6.82838 17.1716 3.51608 13 3.05493V1H11V3.05493C6.82838 3.51608 3.51608 6.82838 3.05493 11H1V13ZM5 12C5 8.13401 8.13401 5 12 5C15.866 5 19 8.13401 19 12C19 15.866 15.866 19 12 19C8.13401 19 5 15.866 5 12ZM12 8C14.2091 8 16 9.79086 16 12C16 14.2091 14.2091 16 12 16C9.79086 16 8 14.2091 8 12C8 9.79086 9.79086 8 12 8ZM10 12C10 10.8954 10.8954 10 12 10C13.1046 10 14 10.8954 14 12C14 13.1046 13.1046 14 12 14C10.8954 14 10 13.1046 10 12Z" fill="#C4C4C4"/>
    </symbol>
    <symbol width="10" height="7" viewBox="0 0 10 7" fill="none" xmlns="http://www.w3.org/2000/svg" id="arrowDownSlimIcon">
      <path d="M0.115648 0.945917C0.26978 0.782718 0.518931 0.782718 0.673063 0.945917L4.73075 5.24227L8.78841 0.945916C8.94254 0.782717 9.19169 0.782717 9.34583 0.945916C9.49996 1.10911 9.49996 1.37292 9.34583 1.53612L5.00945 6.12758C4.93257 6.20898 4.83166 6.24989 4.73073 6.24989C4.6298 6.24989 4.52888 6.20898 4.45201 6.12758L0.115629 1.53612C-0.0384845 1.37292 -0.0384836 1.10912 0.115648 0.945917Z" fill="white"/>
    </symbol>
    <symbol width="18" height="24" viewBox="0 0 18 24" fill="none" xmlns="http://www.w3.org/2000/svg" id="locationPinIcon">
      <path d="M8.99996 0.352943C4.34819 0.352943 0.563721 4.13742 0.563721 8.78914C0.563721 14.5621 8.11333 23.0371 8.43476 23.395C8.73668 23.7313 9.2638 23.7307 9.56516 23.395C9.88659 23.0371 17.4362 14.5621 17.4362 8.78914C17.4361 4.13742 13.6517 0.352943 8.99996 0.352943ZM8.99996 13.0336C6.65954 13.0336 4.75552 11.1296 4.75552 8.78914C4.75552 6.44872 6.65959 4.5447 8.99996 4.5447C11.3403 4.5447 13.2444 6.44876 13.2444 8.78918C13.2444 11.1296 11.3403 13.0336 8.99996 13.0336Z" fill="white"/>
    </symbol>
    <symbol width="12" height="12" viewBox="0 0 12 12" fill="none" xmlns="http://www.w3.org/2000/svg" id="locationPinMiniIcon">
      <path d="M6 0C3.60363 0 1.65405 1.94958 1.65405 4.34592C1.65405 7.31986 5.54325 11.6858 5.70883 11.8702C5.86437 12.0434 6.13591 12.0431 6.29116 11.8702C6.45675 11.6858 10.3459 7.31986 10.3459 4.34592C10.3459 1.94958 8.39634 0 6 0ZM6 6.53248C4.79433 6.53248 3.81347 5.55159 3.81347 4.34592C3.81347 3.14025 4.79435 2.15939 6 2.15939C7.20565 2.15939 8.18651 3.14027 8.18651 4.34594C8.18651 5.55162 7.20565 6.53248 6 6.53248Z" fill="white"/>
    </symbol>
    <symbol width="13" height="13" viewBox="0 0 13 13" fill="none" xmlns="http://www.w3.org/2000/svg" id="pencilIcon">
      <path d="M0 10.2902V12.9986H2.70837L10.6998 5.00708L7.99148 2.29871L0 10.2902Z" fill="white"/>
      <path d="M12.7889 1.89765L11.1024 0.211253C10.8208 -0.0704176 10.3621 -0.0704176 10.0805 0.211253L8.75879 1.53294L11.4672 4.2413L12.7888 2.91962C13.0705 2.63795 13.0705 2.17932 12.7889 1.89765Z" fill="white"/>
    </symbol>
    <symbol width="36" height="36" viewBox="0 0 36 36" fill="none" xmlns="http://www.w3.org/2000/svg" id="deleteIcon">
      <path d="M11 25.6667C11 26.953 12.0465 28 13.3333 28H22.6667C23.9535 28 25 26.953 25 25.6667V14H11V25.6667Z" fill="white"/>
      <path d="M20.2857 9.33333V8H15.7143V9.33333H10V12H26V9.33333H20.2857Z" fill="white"/>
    </symbol>



  </defs>
</svg>